<svg fill="none" height="137" viewBox="0 0 146 137" width="146" xmlns="http://www.w3.org/2000/svg"><path clip-rule="evenodd" d="m133.599 70.0487-80.0236-58.0487-10.5786 34.7918-30.9968 18.5729 80.731 58.6503 8.124-34.6244zm-61.0304-36.5084-23.164 13.949 7.6341-25.2223zm-24.023 16.8548 46.9383 34.0271-6.6936 28.8818-48.5936-35.2667 8.3503-27.6407z" fill="#000" fill-rule="evenodd"/><g fill="#fff"><path clip-rule="evenodd" d="m145.586 70.6126c-.19 4.0394-2.402 7.7115-5.884 9.7682l-28.334 16.7372-6.954 29.638c-.918 3.913-3.734 7.106-7.5004 8.507-3.7667 1.4-7.9844.823-11.2357-1.539l-80.73097-58.6508c-3.25963-2.3681-5.113313-6.2139-4.9351614-10.239.1781524-4.0251 2.3643514-7.6921 5.8204614-9.763l27.02917-16.1956 9.233-30.36637c1.1287-3.71206 3.9825-6.64937 7.6604-7.884667 3.678-1.235297 7.7262-.61613466 10.8668 1.662027l80.0234 58.04871c3.273 2.3744 5.131 6.2379 4.941 10.2773zm-133.586-5.2478 80.731 58.6502 8.124-34.6243 32.744-19.3419-80.0235-58.0487-10.5786 34.7917zm28.1968 12.6726 48.5935 35.2666 6.6936-28.8817-46.9359-34.0254zm13.9553-4.6993 27.0353 19.6207.8094-3.4923-26.8393-19.4566zm18.4165-39.7977-15.5298-11.2733-7.6342 25.2223z" fill-rule="evenodd"/><path d="m45.0151 74.9149 2.834-16.2955 42.8643 28.1983-4.6053 19.4133z"/></g></svg>