<svg width="4096" height="791" viewBox="0 0 4096 791" fill="none" xmlns="http://www.w3.org/2000/svg">
<path d="M1451.44 626.654C1467.48 640.271 1490.38 647.08 1520.11 647.08H1577.46C1585.96 647.08 1590.21 642.854 1590.21 634.401V572.405C1590.21 563.952 1585.96 559.725 1577.46 559.725H1562.59C1544.18 559.725 1534.98 549.628 1534.98 529.434V122.246C1534.98 113.793 1530.73 109.567 1522.24 109.567H1440.1C1431.61 109.567 1427.36 113.793 1427.36 122.246V563.952C1427.36 591.661 1435.39 612.562 1451.44 626.654Z" fill="white"/>
<path d="M1762.08 655.543C1715.08 655.543 1692.46 645.214 1667.91 624.545C1643.37 603.413 1631.09 574.059 1631.09 536.485C1631.09 496.096 1647.14 465.098 1679.24 443.491C1700.01 429.4 1731.17 418.596 1772.69 411.081L1871.82 392.763C1879.85 391.351 1883.62 386.418 1883.15 377.965C1880.31 361.997 1874.65 349.318 1866.16 339.927C1855.77 328.659 1840.2 323.021 1819.43 323.021C1805.27 323.021 1792.28 327.247 1780.49 335.7C1768.69 343.679 1760.19 354.724 1755 368.806C1753.11 375.847 1748.39 379.377 1740.84 379.377H1660.12C1650.22 379.377 1646.43 374.677 1648.79 365.286C1657.76 324.423 1678.3 293.667 1710.4 272.998C1742.49 251.866 1779.07 241.295 1820.13 241.295C1844.21 241.295 1866.87 244.583 1888.1 251.16C1909.34 257.737 1927.52 267.602 1942.62 280.745C1957.72 293.899 1968.59 309.161 1975.19 326.541C1982.27 343.921 1986.52 361.765 1987.93 380.083C1989.82 397.928 1990.77 421.179 1990.77 449.826V634.4C1990.77 642.854 1986.52 647.08 1978.03 647.08H1895.9C1891.17 647.08 1887.75 645.769 1885.66 643.156V478.927L1885.24 479.633C1884.98 476.022 1883.58 473.369 1881.03 471.665C1878.67 469.788 1875.36 469.314 1871.11 470.252L1801.72 483.638C1788.04 486.452 1777.18 489.509 1769.15 492.797C1761.61 496.086 1755.23 500.08 1750.04 504.771C1742.02 512.76 1738 522.151 1738 532.954C1738 546.108 1742.96 556.205 1752.87 563.246C1762.79 569.823 1775.53 573.111 1791.1 573.111C1807.63 573.111 1823.2 569.591 1837.84 562.54C1853.6 555.156 1857.52 545.291 1864.63 532.924C1888.68 647.796 1806.73 655.533 1762.08 655.533V655.543Z" fill="white"/>
<path d="M2145.3 660.789L2138.22 677.695C2133.5 686.622 2127.6 692.492 2120.52 695.307C2113.91 698.121 2104.94 699.533 2093.62 699.533H2060.34C2051.85 699.533 2047.59 703.76 2047.59 712.213V774.914C2047.59 778.677 2048.77 781.723 2051.13 784.074C2053.49 786.424 2056.56 787.594 2060.34 787.594H2116.98C2151.91 787.594 2178.81 779.605 2197.7 763.647C2217.04 748.143 2233.09 721.382 2245.84 683.333L2389.56 264.868C2390.99 260.168 2390.74 256.647 2388.86 254.297C2386.97 251.483 2383.9 250.07 2379.65 250.07H2290.45C2283.37 250.07 2278.65 253.833 2276.28 261.338L2217.52 484.949C2213.74 499.293 2208.9 513.335 2203.03 526.962L2145.31 660.789H2145.3Z" fill="white"/>
<path d="M2143.07 624.011L2010.78 264.878L2009.36 259.24C2009.36 253.137 2013.13 250.08 2020.69 250.08H2109.19C2117.21 250.08 2122.17 253.601 2124.06 260.652L2168.59 412.272C2177.69 450.855 2192.55 488.672 2172.18 551.716C2161.13 583.39 2155.15 593.991 2143.08 624.011H2143.07Z" fill="white"/>
<path d="M2544.95 533.237C2544.95 533.237 2560.93 569.571 2621.72 564.275C2647.39 562.035 2665.37 553.714 2682.36 532.571C2699.82 510.964 2708.56 483.023 2708.56 448.737C2708.56 414.45 2699.82 386.741 2682.36 365.608C2665.37 344.002 2642.71 333.198 2614.4 333.198C2586.08 333.198 2562.94 344.002 2545.01 365.608C2527.55 386.741 2518.81 414.45 2518.81 448.737C2518.81 457.2 2519.34 465.28 2520.4 472.976L2534.37 631.072C2534.37 631.152 2534.38 631.233 2534.38 631.314V634.723C2534.38 643.176 2530.14 647.403 2521.64 647.403H2439.51C2431.01 647.403 2426.76 643.176 2426.76 634.723V122.569C2426.76 114.116 2431.01 109.889 2439.51 109.889H2521.64C2530.14 109.889 2534.38 114.116 2534.38 122.569V274.027C2534.38 280.604 2536.27 283.893 2540.05 283.893C2541.94 283.893 2544.77 282.016 2548.55 278.254C2561.29 265.1 2574.97 255.709 2589.61 250.07C2604.71 244.432 2622.18 241.617 2642 241.617C2675.99 241.617 2706.2 250.544 2732.63 268.389C2759.07 285.769 2779.59 310.19 2794.23 341.652C2809.33 372.649 2816.88 408.338 2816.88 448.737C2816.88 489.136 2809.33 525.056 2794.23 556.518C2794.08 556.83 2793.94 557.133 2793.79 557.446C2773.22 600.467 2736.33 633.977 2689.69 643.842C2674.34 647.09 2657.88 648.311 2645.54 647.948C2528.87 644.558 2544.95 533.226 2544.95 533.226V533.237Z" fill="white"/>
<path d="M2940.25 400.661C2950.24 341.541 2974.45 285.466 3042.75 248.164C3041.65 248.154 2976.07 245.35 2935.79 267.693C2904.63 285.073 2880.32 309.262 2862.86 340.249C2845.4 371.247 2836.67 406.704 2836.67 446.628C2836.67 486.553 2845.4 524.592 2862.86 556.528C2880.32 587.99 2904.63 612.421 2935.79 629.791C2967.42 647.171 3003.52 655.856 3044.12 655.856C3084.72 655.856 3121.28 647.171 3152.44 629.791C3183.59 612.411 3207.66 587.99 3224.66 556.528C3242.12 524.592 3250.85 487.955 3250.85 446.628C3250.85 405.301 3242.12 371.247 3224.66 340.249C3214.41 321.558 3201.5 305.338 3185.93 291.599C3155.47 266.079 3093.29 233.457 3037.3 269.407C3002.57 295.765 2993.14 324.513 2999.42 355.955C3008.67 335.609 3034.19 331.605 3057.5 331.907C3082.18 332.23 3102.68 348.521 3114.99 364.832C3132.16 387.387 3142.27 413.139 3142.27 446.487C3142.27 481.711 3131.82 512.356 3114.34 533.963C3096.88 555.095 3072.88 564.598 3044.1 563.569C2908.64 558.727 2940.23 400.651 2940.23 400.651L2940.25 400.661Z" fill="white"/>
<path d="M3822.25 122.569C3822.25 114.116 3818 109.889 3809.51 109.889H3727.38C3718.88 109.889 3714.63 114.116 3714.63 122.569V634.723C3714.63 643.176 3718.88 647.403 3727.38 647.403H3809.51C3818 647.403 3822.25 643.176 3822.25 634.723V122.569Z" fill="white"/>
<path d="M4087.8 647.221C4094.54 647.211 4098.39 639.525 4094.36 634.128L3943.03 431.135C3941.15 428.784 3940.2 426.202 3940.2 423.388C3940.2 419.625 3941.61 416.347 3944.45 413.522L4076.63 263.708C4081.3 258.412 4077.54 250.091 4070.48 250.091H3981.98C3975.85 250.091 3970.42 252.441 3965.7 257.131C3969.93 251.815 3916.38 308.767 3888.51 338.736C3868.91 359.808 3849.61 379.024 3844.97 410.385C3839.21 449.322 3855.26 477.606 3878.89 508.604C3905.58 543.596 3981.97 639.666 3981.97 639.666C3985.28 644.831 3990.23 647.413 3996.84 647.413L4087.8 647.231V647.221Z" fill="white"/>
<path d="M1107.4 317.674C1107.4 317.674 1127.01 357.872 1219.88 341.5C1230.64 339.604 1240.9 335.266 1249.5 328.528C1263.72 317.372 1272.89 300.94 1272.99 282.087C1272.99 281.885 1272.83 273.916 1272.83 273.715C1272.83 253.52 1266.46 238.258 1253.71 227.929C1241.44 217.126 1223.27 211.729 1199.2 211.729H1097.96C1089.45 211.729 1085.21 215.956 1085.21 224.409V634.411C1085.21 642.864 1080.96 647.09 1072.47 647.09H983.961C975.467 647.09 971.22 642.864 971.22 634.411V122.246C971.22 113.793 975.467 109.567 983.961 109.567H1215.48C1268.35 109.567 1309.89 122.72 1340.09 149.017C1370.77 174.851 1386.11 215.239 1386.11 270.184C1386.11 304.47 1378.8 334.056 1364.17 358.951C1350 383.846 1329.94 402.86 1303.99 416.014C1278.49 429.168 1246.87 437.853 1213.36 437.853C1066.73 440.001 1107.39 317.674 1107.39 317.674H1107.4Z" fill="white"/>
<path fill-rule="evenodd" clip-rule="evenodd" d="M858.143 409.659L293.405 0L218.75 245.531L0 376.603L569.732 790.509L627.067 546.158L858.143 409.659ZM427.443 152.013L263.97 250.454L317.846 72.4559L427.443 152.013ZM257.908 270.961L589.16 511.095L541.922 714.916L198.989 466.036L257.918 270.971L257.908 270.961Z" fill="white"/>
<path d="M3375.17 400.661C3385.15 341.541 3409.36 285.466 3477.66 248.164C3476.56 248.154 3410.99 245.35 3370.71 267.693C3339.55 285.073 3315.24 309.262 3297.78 340.249C3280.32 371.247 3271.58 406.704 3271.58 446.628C3271.58 486.553 3280.32 524.592 3297.78 556.528C3315.24 587.99 3339.55 612.421 3370.71 629.791C3402.33 647.171 3438.43 655.856 3479.04 655.856C3519.64 655.856 3556.2 647.171 3587.36 629.791C3618.51 612.411 3642.58 587.99 3659.57 556.528C3677.04 524.592 3685.77 487.955 3685.77 446.628C3685.77 405.301 3677.04 371.247 3659.57 340.249C3649.33 321.558 3636.41 305.338 3620.85 291.599C3590.39 266.079 3528.21 233.457 3472.22 269.407C3437.49 295.765 3428.05 324.513 3434.34 355.955C3443.59 335.609 3469.11 331.605 3492.42 331.907C3517.09 332.23 3537.6 348.521 3549.91 364.832C3567.08 387.387 3577.18 413.139 3577.18 446.487C3577.18 481.711 3566.73 512.356 3549.26 533.963C3531.8 555.095 3507.79 564.598 3479.01 563.569C3343.55 558.727 3375.15 400.651 3375.15 400.651L3375.17 400.661Z" fill="white"/>
</svg>
